<?xml version="1.0" standalone="no"?>
<!DOCTYPE svg PUBLIC "-//W3C//DTD SVG 20010904//EN"
 "http://www.w3.org/TR/2001/REC-SVG-20010904/DTD/svg10.dtd">
<svg version="1.0" xmlns="http://www.w3.org/2000/svg"
 width="16.000000pt" height="16.000000pt" viewBox="0 0 16.000000 16.000000"
 preserveAspectRatio="xMidYMid meet">
<metadata>
Created by potrace 1.11, written by Peter Selinger 2001-2013
</metadata>
<g transform="translate(0.000000,16.000000) scale(0.000836,-0.000836)"
fill="#000000" stroke="none">
<path d="M8706 14008 c0 -2279 2 -4145 3 -4147 0 -2 20 21 43 50 24 30 55 68
70 84 15 17 28 33 28 37 0 4 6 13 13 20 7 7 93 114 192 238 99 123 187 234
197 245 9 11 119 148 244 305 125 157 235 292 243 300 9 8 81 89 161 180 79
91 149 170 155 176 43 46 229 256 549 618 33 38 68 77 76 86 8 9 46 52 85 96
38 43 72 81 75 84 10 10 147 165 171 194 13 16 33 38 45 50 11 12 54 59 95
106 41 47 76 87 79 90 3 3 75 84 159 180 85 96 164 184 175 196 12 12 40 43
62 70 23 27 52 61 65 75 30 32 140 156 204 229 27 30 51 57 54 60 3 3 38 41
76 85 82 93 134 152 155 175 8 9 46 52 85 96 38 43 76 86 85 95 8 9 42 47 75
84 94 108 553 626 589 665 18 19 68 76 111 125 43 50 81 92 84 95 4 3 21 23
40 45 36 42 150 170 213 239 21 23 38 44 38 47 0 6 -122 80 -243 148 -39 22
-279 161 -327 190 -19 11 -53 30 -75 42 -22 12 -107 61 -190 109 -255 149
-908 525 -955 552 -37 20 -142 81 -220 128 -29 17 -329 190 -367 211 -21 12
-42 25 -48 29 -5 4 -35 21 -65 37 -30 17 -109 62 -175 100 -66 38 -140 81
-165 95 -25 14 -123 71 -219 127 -96 55 -175 101 -178 101 -2 0 -39 23 -83 50
-44 28 -82 50 -84 50 -3 0 -119 67 -591 340 -16 10 -75 43 -130 75 -113 65
-104 60 -320 185 -88 51 -180 104 -204 118 -25 14 -67 38 -93 53 -27 16 -52
29 -56 29 -4 0 -7 -1864 -6 -4142z"/>
<path d="M5512 16548 c-7 -7 -12 -15 -12 -19 0 -4 -21 -43 -46 -86 -26 -43
-56 -94 -67 -113 -34 -61 -286 -498 -389 -673 -54 -93 -98 -171 -98 -173 0 -2
-11 -21 -24 -42 -13 -20 -118 -201 -234 -402 -115 -201 -219 -381 -230 -400
-11 -19 -50 -87 -86 -150 -37 -63 -77 -133 -90 -155 -35 -60 -340 -588 -496
-860 -10 -16 -68 -118 -130 -225 -179 -308 -250 -432 -275 -475 -25 -45 -423
-733 -452 -782 -28 -50 -145 -252 -176 -308 -16 -27 -35 -61 -44 -74 -8 -12
-29 -48 -45 -80 -17 -31 -46 -80 -65 -109 -18 -29 -33 -56 -33 -60 0 -4 -11
-23 -23 -42 -13 -19 -36 -56 -50 -82 -60 -107 -80 -142 -143 -250 -37 -62 -76
-129 -86 -148 -22 -38 -168 -292 -502 -869 -119 -205 -216 -378 -216 -382 0
-5 -4 -9 -10 -9 -5 0 -10 -4 -10 -9 0 -5 -66 -123 -147 -263 -80 -139 -156
-271 -168 -293 -12 -22 -37 -65 -55 -95 -18 -30 -42 -71 -53 -90 -11 -19 -86
-150 -167 -290 -81 -140 -157 -271 -167 -290 -11 -19 -71 -123 -133 -230 -62
-107 -122 -211 -133 -230 -11 -19 -52 -91 -92 -160 -201 -344 -325 -562 -325
-569 0 -5 -7 -14 -15 -21 -8 -7 -15 -18 -15 -24 0 -7 66 -50 146 -97 81 -46
163 -93 183 -105 20 -11 187 -108 371 -214 184 -106 349 -201 365 -211 17 -10
55 -32 85 -49 30 -17 69 -39 85 -49 17 -10 50 -29 75 -43 25 -14 101 -58 170
-98 69 -40 258 -149 420 -243 162 -93 331 -191 375 -217 44 -26 87 -50 95 -54
8 -3 29 -14 45 -25 32 -19 324 -189 390 -226 51 -29 211 -122 250 -146 17 -10
46 -26 65 -37 19 -11 208 -120 420 -242 212 -123 403 -233 425 -245 22 -12
149 -86 283 -163 134 -78 248 -142 253 -142 5 0 9 -4 9 -10 0 -5 4 -10 10 -10
5 0 44 -21 87 -46 43 -25 107 -62 143 -82 36 -19 72 -40 80 -46 8 -6 24 -16
35 -22 66 -36 118 -65 152 -86 21 -14 45 -28 53 -31 8 -4 29 -15 45 -26 17
-10 48 -28 70 -41 22 -12 101 -58 176 -101 74 -44 140 -79 146 -79 8 0 11
1750 11 6365 0 3501 -1 6365 -2 6365 -1 0 -7 -5 -14 -12z"/>
<path d="M15982 13882 c-22 -26 -49 -56 -59 -67 -23 -25 -97 -108 -183 -205
-36 -40 -86 -96 -111 -124 -25 -28 -126 -141 -224 -251 -97 -110 -191 -216
-209 -235 -17 -19 -69 -78 -116 -130 -119 -134 -152 -171 -175 -195 -11 -12
-35 -39 -54 -61 -19 -21 -64 -73 -101 -114 -56 -63 -122 -137 -356 -400 -13
-14 -31 -34 -41 -46 -10 -12 -49 -56 -88 -99 -87 -96 -75 -83 -170 -190 -44
-50 -82 -92 -85 -95 -6 -6 -305 -342 -345 -389 -17 -19 -37 -41 -46 -50 -9 -9
-38 -41 -64 -71 -68 -78 -177 -201 -195 -220 -8 -8 -123 -137 -255 -285 -132
-149 -244 -275 -250 -281 -5 -6 -39 -44 -75 -84 -36 -40 -69 -78 -75 -84 -5
-6 -44 -49 -85 -96 -91 -102 -148 -167 -175 -195 -11 -12 -35 -39 -54 -61 -19
-21 -64 -73 -101 -114 -37 -41 -79 -89 -94 -107 l-27 -32 51 -73 c28 -40 80
-113 115 -163 77 -108 83 -116 257 -365 75 -107 141 -199 145 -205 5 -5 34
-46 64 -90 51 -74 276 -393 408 -580 31 -44 82 -115 111 -158 30 -43 75 -106
100 -140 36 -51 646 -916 809 -1147 25 -36 87 -123 136 -193 50 -70 115 -163
145 -206 30 -43 83 -119 118 -167 35 -49 166 -235 292 -414 283 -403 274 -390
282 -382 3 4 15 23 26 42 10 19 79 139 152 265 73 127 208 361 300 520 92 160
177 306 189 325 11 19 24 42 28 50 3 8 16 31 28 50 12 19 83 141 157 270 74
129 186 323 248 430 215 372 344 596 470 815 70 121 212 366 315 545 103 179
196 341 207 360 47 82 286 495 353 610 70 120 276 477 317 550 105 185 334
581 349 602 11 15 19 29 19 31 0 2 45 82 101 178 56 96 114 197 129 224 15 28
69 122 121 210 51 88 168 290 260 450 l167 290 -82 47 c-44 25 -97 55 -116 66
-19 11 -161 93 -315 182 -154 89 -300 174 -325 188 -25 14 -124 71 -220 127
-96 56 -182 104 -190 108 -8 4 -28 16 -45 26 -26 16 -80 48 -190 111 -16 9
-88 51 -160 92 -71 42 -146 85 -165 95 -20 11 -92 53 -160 93 -69 40 -141 82
-160 93 -19 11 -150 86 -290 167 -364 210 -652 375 -676 388 -19 10 -26 5 -62
-36z"/>
<path d="M10005 7307 c-61 -63 -234 -242 -386 -398 -370 -380 -587 -603 -766
-788 l-149 -153 1 -1987 c1 -1092 3 -1989 4 -1993 0 -4 34 -26 74 -48 39 -23
88 -51 107 -62 147 -87 201 -118 206 -118 3 0 18 -8 32 -19 15 -10 47 -29 72
-43 25 -14 180 -103 345 -198 165 -95 309 -178 320 -184 11 -6 27 -16 35 -22
8 -7 40 -25 70 -41 30 -17 84 -47 120 -68 36 -20 83 -48 105 -60 22 -13 102
-60 179 -104 76 -45 140 -81 142 -81 2 0 37 -21 79 -46 41 -25 97 -57 123 -72
27 -15 136 -78 243 -140 107 -62 414 -239 684 -395 l490 -283 46 81 c227 392
299 520 299 527 0 4 5 8 10 8 6 0 10 4 10 10 0 5 14 33 31 62 38 63 63 107 97
168 13 25 28 50 32 55 4 6 17 26 28 46 11 20 73 128 137 240 65 112 126 218
135 234 61 106 506 876 521 900 10 17 29 51 43 76 l25 46 -167 242 c-92 132
-338 488 -547 791 -209 303 -386 558 -393 568 -7 9 -91 130 -187 269 -95 139
-200 290 -231 335 -32 46 -76 110 -98 143 -23 33 -43 62 -46 65 -6 6 -32 43
-110 160 -35 52 -67 97 -70 100 -3 3 -26 34 -50 70 -24 36 -58 86 -77 112 -18
26 -54 78 -79 115 -26 37 -151 218 -278 401 -127 184 -238 343 -246 355 -16
25 -435 631 -515 747 -29 41 -102 147 -163 235 -60 88 -120 174 -132 190 -11
17 -26 38 -33 48 -11 16 -23 6 -122 -96z"/>
</g>
</svg>
